<?xml version="1.0" encoding="UTF-8" standalone="no"?>
<!DOCTYPE svg PUBLIC "-//W3C//DTD SVG 1.0//EN" "http://www.w3.org/TR/2001/REC-SVG-20010904/DTD/svg10.dtd">
<svg
   xmlns:svg="http://www.w3.org/2000/svg"
   xmlns="http://www.w3.org/2000/svg"
   xmlns:xlink="http://www.w3.org/1999/xlink"
   version="1.0"
 viewBox="-2 -2 252 252" >
  <defs />
  <path
     d="M 250,125.00 C 250,194.03 194.03,250.00 125,250.00 C 55.96,250.00 0,194.03 0,125.00 C 0,55.96 55.96,0.00 125,0.00 C 194.03,0.00 250,55.96 250,125.00"
        style="opacity:1;fill:#ffffff;fill-opacity:1;stroke:#000000;stroke-width:3;stroke-linecap:round;stroke-linejoin:round;stroke-miterlimit:0;stroke-dasharray:none;stroke-opacity:1" />
  <path
     d="M 43.522267,29.8583 C 43.522267,29.8583 79.4822,51.719461 94.129555,45.546559 C 108.27037,39.587129 117.40891,0 117.40891,0 C 93.487004,18.436463 68.79305,27.608361 43.522267,29.8583 z"
        style="fill:#73cad4;fill-opacity:1;fill-rule:evenodd;stroke:#000000;stroke-width:3;stroke-linecap:butt;stroke-linejoin:round;stroke-miterlimit:4;stroke-dasharray:none;stroke-opacity:1" />
  <path
     d="M 4.5546558,92.611336 C 70.018301,73.22632 132.95352,51.945956 187.75303,19.230769 C 202.00702,52.296342 220.72506,61.553596 238.8664,73.88664 C 152.47022,90.734717 79.115132,91.544199 4.5546558,92.611336 z"
        style="fill:#73cad4;fill-opacity:1;fill-rule:evenodd;stroke:#000000;stroke-width:3;stroke-linecap:butt;stroke-linejoin:round;stroke-miterlimit:4;stroke-dasharray:none;stroke-opacity:1" />
  <path
     d="M 61.740891,231.78138 C 57.774739,222.79234 66.25305,185.05793 78.441296,191.29554 C 91.094093,197.77089 77.624773,222.09914 61.740891,231.78138 z"
     style="fill:#73cad4;fill-opacity:1;fill-rule:evenodd;stroke:#000000;stroke-width:3;stroke-linecap:butt;stroke-linejoin:miter;stroke-miterlimit:4;stroke-dasharray:none;stroke-opacity:1" />
  <path
     d="M 9.6153846,171.05263 C 81.594313,119.92472 165.94569,157.0915 247.97571,144.23077 C 218.16265,162.90287 198.41923,177.54236 209.51417,213.56275 C 170.45603,196.63219 157.35216,217.10885 135.12145,248.48178 C 124.03198,172.72505 78.309711,162.64849 9.6153846,171.05263 z"
        style="fill:#73cad4;fill-opacity:1;fill-rule:evenodd;stroke:#000000;stroke-width:3;stroke-linecap:butt;stroke-linejoin:round;stroke-miterlimit:4;stroke-dasharray:none;stroke-opacity:1" />
</svg>
