<?xml version="1.0" encoding="UTF-8"?>
<!-- Created with Inkscape (http://www.inkscape.org/) -->
<svg id="svg824" width="428.88025" height="113.388" version="1.1" viewBox="0 0 428.88025 113.388" xml:space="preserve" xmlns="http://www.w3.org/2000/svg"><defs id="defs828"><clipPath id="clipPath838"><path id="path836" d="M 0,158.74 H 428.031 V 0 H 0 Z"/></clipPath></defs><g id="g830" transform="matrix(1.3333333,0,0,-1.3333333,-70.914532,158.55173)"><g id="g832"><g id="g834" clip-path="url(#clipPath838)"><g id="g840" transform="translate(137.3477,83.0874)"><path id="path842" d="m0 0c0 3.396 1.761 5.115 4.347 5.115 1.439 0 2.292-0.279 2.893-0.671v-1.746h-1.272c-0.238 1.061-0.601 1.579-1.663 1.579-1.44 0-2.307-1.006-2.307-4.207 0-3.368 0.937-4.137 2.391-4.137 1.104 0 1.523 0.474 1.719 1.593h1.202v-1.678c-0.532-0.39-1.566-0.74-2.963-0.74-2.894 0-4.347 1.817-4.347 4.892" fill="#53565a"/></g><g id="g844" transform="translate(148.8682,84.7646)"><path id="path846" d="m0 0c-1.118 0-1.51-0.867-1.51-2.851 0-2.027 0.377-2.949 1.566-2.949 0.992 0 1.495 0.95 1.495 2.934 0 2.083-0.531 2.866-1.551 2.866m0-6.569c-2.055 0-3.369 1.341-3.369 3.662 0 2.264 1.37 3.704 3.411 3.704 2.054 0 3.368-1.37 3.368-3.663 0-2.459-1.51-3.703-3.41-3.703" fill="#53565a"/></g><g id="g848" transform="translate(155.6211,79.9287)"><path id="path850" d="m0 0c0-0.811 0.14-0.978 0.951-1.007v-0.559h-3.606v0.559c0.783 0.043 0.95 0.182 0.95 0.978v6.584c0 1.02-0.224 1.16-1.007 1.188v0.531l2.293 0.392h0.21c0.083-0.21 0.209-0.671 0.209-1.384z" fill="#53565a"/></g><g id="g852" transform="translate(160.752,81.7593)"><path id="path854" d="m0 0c-1.243 0-1.83-0.419-1.83-1.37 0-0.895 0.349-1.159 1.006-1.159 0.503 0 0.992 0.321 1.271 0.755l0.042 1.76c-0.111 0-0.377 0.014-0.489 0.014m-2.194 4.934 2.572 2.39 0.923-1.523-3.173-1.356zm5.325-7.618v-0.545c-0.251-0.14-0.713-0.251-1.216-0.251-0.922 0-1.258 0.391-1.355 0.978-0.239-0.461-0.853-1.09-1.929-1.09-1.286 0-2.236 0.657-2.236 2.027 0 1.663 1.341 2.292 3.536 2.292 0.168 0 0.405 0 0.587-0.014v0.629c0 1.132-0.266 1.636-1.119 1.636-0.978 0-1.244-0.574-1.355-1.273h-1.231v1.342c0.671 0.377 1.776 0.755 2.824 0.755 1.593 0 2.599-0.713 2.599-2.349 0-0.419-0.055-1.607-0.055-2.878 0-1.049 0.139-1.217 0.95-1.259" fill="#53565a"/></g><g id="g856" transform="translate(165.9971,86.3438)"><path id="path858" d="m0 0c-0.587 0-1.062 0.476-1.062 1.062 0 0.587 0.475 1.063 1.076 1.063s1.062-0.476 1.062-1.063c0-0.586-0.475-1.062-1.076-1.062m-1.678-7.981v0.559c0.755 0.043 0.923 0.182 0.923 0.978v3.369c0 1.02-0.182 1.16-0.936 1.189v0.53l2.376 0.518h0.265v-5.606c0-0.796 0.112-0.949 0.908-0.978v-0.559z" fill="#53565a"/></g><g id="g860" transform="translate(168.4863,78.7822)"><path id="path862" d="m0 0v1.44h1.174c0.111-0.965 0.587-1.272 1.439-1.272 0.741 0 1.3 0.293 1.3 1.035 0 0.656-0.363 0.908-1.09 1.075l-0.965 0.223c-1.103 0.252-1.802 0.881-1.802 2.055 0 1.468 1.188 2.209 2.641 2.209 1.174 0 1.915-0.321 2.265-0.49v-1.383h-1.105c-0.126 0.769-0.558 1.09-1.299 1.09-0.727 0-1.147-0.336-1.147-0.937 0-0.516 0.266-0.796 0.965-0.949l0.923-0.21c1.355-0.322 2.054-0.993 2.054-2.139 0-1.454-1.077-2.333-2.879-2.333-1.398 0-2.097 0.377-2.474 0.586" fill="#53565a"/></g><g id="g864" transform="translate(178.4541,84.4287)"><path id="path866" d="m0 0h-1.468v-3.97c0-1.048 0.14-1.383 0.839-1.383 0.251 0 0.489 0.056 0.797 0.154l0.167-0.615c-0.503-0.294-1.034-0.448-1.663-0.448-1.174 0-1.845 0.49-1.845 1.958v4.304h-0.839v0.602l0.937 0.349c0.098 0.642 0.307 1.356 0.642 1.886l1.091 0.168c-0.07-0.502-0.126-1.356-0.126-2.068h1.677z" fill="#53565a"/></g><g id="g868" transform="translate(180.957,82.5)"><path id="path870" d="m0 0h2.6c0 1.692-0.349 2.278-1.23 2.278-0.824 0-1.271-0.53-1.37-2.278m3.899-2.725 0.308-0.531c-0.713-0.644-1.593-1.048-2.711-1.048-2.097 0-3.326 1.355-3.326 3.703 0 2.32 1.327 3.663 3.2 3.663 1.999 0 2.963-1.259 2.963-3.397v-0.49h-4.347c0.042-1.789 0.658-2.431 2.055-2.431 0.587 0 1.3 0.21 1.858 0.531" fill="#53565a"/></g><g id="g872" transform="translate(195.8887,79.8999)"><path id="path874" d="m0 0c0-0.796 0.153-0.936 0.866-0.978v-0.559h-3.479v0.559c0.797 0.029 0.908 0.196 0.908 0.923v3.298c0 0.839-0.35 1.146-0.965 1.146-0.726 0-1.201-0.293-1.649-0.685v-3.759c0-0.727 0.112-0.894 0.909-0.923v-0.559h-3.536v0.559c0.755 0.042 0.922 0.182 0.922 0.978v3.369c0 1.02-0.181 1.16-0.936 1.189v0.53l2.054 0.559h0.211c0.083-0.181 0.293-0.712 0.32-1.244 0.616 0.671 1.328 1.23 2.419 1.23 1.132 0 1.956-0.671 1.956-2.012z" fill="#53565a"/></g><g id="g876" transform="translate(200.9102,81.7593)"><path id="path878" d="m0 0c-1.244 0-1.831-0.419-1.831-1.37 0-0.895 0.349-1.159 1.006-1.159 0.504 0 0.992 0.321 1.271 0.755l0.042 1.76c-0.11 0-0.377 0.014-0.488 0.014m3.132-2.684v-0.545c-0.253-0.14-0.715-0.251-1.217-0.251-0.924 0-1.258 0.391-1.356 0.978-0.239-0.461-0.853-1.09-1.929-1.09-1.285 0-2.236 0.657-2.236 2.027 0 1.663 1.341 2.292 3.536 2.292 0.168 0 0.405 0 0.588-0.014v0.629c0 1.132-0.266 1.636-1.119 1.636-0.979 0-1.245-0.574-1.356-1.273h-1.23v1.342c0.671 0.377 1.776 0.755 2.823 0.755 1.593 0 2.599-0.713 2.599-2.349 0-0.419-0.054-1.607-0.054-2.878 0-1.049 0.139-1.217 0.951-1.259" fill="#53565a"/></g><g id="g880" transform="translate(214.8486,88.0356)"><path id="path882" d="m0 0 0.126-2.404h-0.866c-0.252 1.188-0.364 1.55-1.23 1.55h-0.825v-7.226c0-0.838 0.294-1.005 1.173-1.02v-0.573h-4.137v0.573c0.882 0.015 1.175 0.182 1.175 1.02v7.226h-0.824c-0.868 0-0.965-0.362-1.231-1.55h-0.868l0.14 2.404z" fill="#53565a"/></g><g id="g884" transform="translate(219.5059,85.5615)"><path id="path886" d="m0 0c0.183 0 0.363-0.028 0.476-0.07l-0.35-1.789c-0.182 0.07-0.335 0.098-0.614 0.098-1.105 0-1.427-0.392-1.427-1.608v-2.293c0-0.796 0.14-0.949 1.147-0.978v-0.559h-3.775v0.559c0.756 0.043 0.923 0.182 0.923 0.978v3.369c0 1.021-0.181 1.16-0.937 1.189v0.53l2.055 0.559h0.211c0.096-0.209 0.32-0.852 0.334-1.704 0.447 1.089 1.203 1.719 1.957 1.719" fill="#53565a"/></g><g id="g888" transform="translate(220.2773,86.6934)"><path id="path890" d="m0 0 2.572 2.39 0.921-1.523-3.173-1.356zm-0.015-8.331v0.56c0.754 0.042 0.924 0.182 0.924 0.978v3.368c0 1.021-0.183 1.16-0.937 1.189v0.53l2.376 0.518h0.265v-5.605c0-0.796 0.113-0.95 0.909-0.978v-0.56z" fill="#53565a"/></g><g id="g892" transform="translate(227.8271,84.7646)"><path id="path894" d="m0 0c-1.12 0-1.51-0.867-1.51-2.851 0-2.027 0.376-2.949 1.565-2.949 0.992 0 1.496 0.95 1.496 2.934 0 2.083-0.531 2.866-1.551 2.866m0-6.569c-2.055 0-3.37 1.341-3.37 3.662 0 2.264 1.37 3.704 3.411 3.704 2.055 0 3.367-1.37 3.367-3.663 0-2.459-1.509-3.703-3.408-3.703" fill="#53565a"/></g><g id="g896" transform="translate(238.9131,79.8999)"><path id="path898" d="m0 0c0-0.796 0.154-0.936 0.866-0.978v-0.559h-3.479v0.559c0.795 0.029 0.907 0.196 0.907 0.923v3.298c0 0.839-0.349 1.146-0.964 1.146-0.726 0-1.203-0.293-1.649-0.685v-3.759c0-0.727 0.111-0.894 0.909-0.923v-0.559h-3.537v0.559c0.756 0.042 0.923 0.182 0.923 0.978v3.369c0 1.02-0.183 1.16-0.937 1.189v0.53l2.055 0.559h0.209c0.084-0.181 0.295-0.712 0.322-1.244 0.614 0.671 1.327 1.23 2.417 1.23 1.134 0 1.958-0.671 1.958-2.012z" fill="#53565a"/></g><g id="g900" transform="translate(243.7812,84.7646)"><path id="path902" d="m0 0c-1.12 0-1.51-0.867-1.51-2.851 0-2.027 0.376-2.949 1.565-2.949 0.992 0 1.496 0.95 1.496 2.934 0 2.083-0.532 2.866-1.551 2.866m-1.734 1.929 2.572 2.39 0.921-1.524-3.173-1.356zm1.734-8.498c-2.056 0-3.37 1.341-3.37 3.662 0 2.264 1.37 3.704 3.411 3.704 2.055 0 3.367-1.37 3.367-3.663 0-2.459-1.51-3.703-3.408-3.703" fill="#53565a"/></g><g id="g904" transform="translate(249.5967,86.3438)"><path id="path906" d="m0 0c-0.587 0-1.061 0.476-1.061 1.062 0 0.587 0.474 1.063 1.075 1.063 0.602 0 1.062-0.476 1.062-1.063 0-0.586-0.473-1.062-1.076-1.062m-1.677-7.981v0.559c0.756 0.043 0.923 0.182 0.923 0.978v3.369c0 1.02-0.183 1.16-0.936 1.189v0.53l2.375 0.518h0.265v-5.606c0-0.796 0.112-0.949 0.91-0.978v-0.559z" fill="#53565a"/></g><g id="g908" transform="translate(255.3984,79.2573)"><path id="path910" d="m0 0c0.546 0 1.063 0.293 1.523 0.783v3.843c-0.362 0.448-0.907 0.644-1.424 0.644-0.937 0-1.537-0.504-1.537-2.559 0-2.068 0.488-2.711 1.438-2.711m-0.504-1.048c-1.537 0-2.78 1.048-2.78 3.592 0 2.418 1.229 3.732 3.032 3.732 0.699 0 1.356-0.266 1.775-0.755v1.706c0 1.02-0.208 1.16-0.963 1.187v0.531l2.347 0.392h0.323v-8.219c0-1.02 0.181-1.145 0.992-1.188v-0.503l-2.041-0.503h-0.21c-0.056 0.07-0.293 0.531-0.349 1.174-0.446-0.671-1.271-1.146-2.126-1.146" fill="#53565a"/></g><g id="g912" transform="translate(262.0557,82.5)"><path id="path914" d="m0 0h2.6c0 1.692-0.351 2.278-1.231 2.278-0.824 0-1.27-0.53-1.369-2.278m3.898-2.725 0.31-0.531c-0.715-0.644-1.595-1.048-2.713-1.048-2.096 0-3.326 1.355-3.326 3.703 0 2.32 1.327 3.663 3.2 3.663 2 0 2.965-1.259 2.965-3.397v-0.49h-4.348c0.041-1.789 0.658-2.431 2.055-2.431 0.586 0 1.299 0.21 1.857 0.531" fill="#53565a"/></g><g id="g916" transform="translate(267.5781,76.3218)"><path id="path918" d="m0 0-0.349 0.504c0.894 0.293 1.357 0.685 1.357 1.132 0 0.279-0.184 0.378-0.518 0.517-0.294 0.125-0.643 0.35-0.643 0.895 0 0.586 0.475 1.076 1.133 1.076 0.754 0 1.299-0.643 1.299-1.538 0-1.257-0.839-2.25-2.279-2.586" fill="#53565a"/></g><g id="g920" transform="translate(277.7559,79.1875)"><path id="path922" d="m0 0c1.314 0 1.747 0.503 1.747 1.887 0 1.328-0.446 1.845-1.857 1.845h-1.301v-3.732zm-0.294 4.557c1.217 0 1.622 0.461 1.622 1.691 0 1.3-0.461 1.747-1.677 1.747h-1.062v-3.438zm-3.954-4.809c0.839 0.015 1.033 0.225 1.033 1.021v6.457c0 0.797-0.194 1.021-1.033 1.035v0.587h4.053c2.221 0 3.397-0.825 3.397-2.474 0-1.174-0.643-1.845-1.929-2.124v-0.057c1.62-0.209 2.362-1.146 2.362-2.446 0-1.733-1.301-2.572-3.34-2.572h-4.543z" fill="#53565a"/></g><g id="g924" transform="translate(285.9092,81.7593)"><path id="path926" d="m0 0c-1.245 0-1.832-0.419-1.832-1.37 0-0.895 0.351-1.159 1.008-1.159 0.502 0 0.992 0.321 1.271 0.755l0.041 1.76c-0.112 0-0.378 0.014-0.488 0.014m3.13-2.684v-0.545c-0.252-0.14-0.713-0.251-1.217-0.251-0.921 0-1.257 0.391-1.353 0.978-0.239-0.461-0.855-1.09-1.929-1.09-1.287 0-2.238 0.657-2.238 2.027 0 1.663 1.342 2.292 3.537 2.292 0.167 0 0.405 0 0.586-0.014v0.629c0 1.132-0.266 1.636-1.118 1.636-0.978 0-1.244-0.574-1.356-1.273h-1.23v1.342c0.671 0.377 1.775 0.755 2.825 0.755 1.592 0 2.599-0.713 2.599-2.349 0-0.419-0.057-1.607-0.057-2.878 0-1.049 0.14-1.217 0.951-1.259" fill="#53565a"/></g><g id="g928" transform="translate(291.1523,86.3438)"><path id="path930" d="m0 0c-0.588 0-1.062 0.476-1.062 1.062 0 0.587 0.474 1.063 1.077 1.063 0.599 0 1.062-0.476 1.062-1.063 0-0.586-0.476-1.062-1.077-1.062m-1.679-7.981v0.559c0.756 0.043 0.924 0.182 0.924 0.978v3.369c0 1.02-0.182 1.16-0.937 1.189v0.53l2.378 0.518h0.265v-5.606c0-0.796 0.111-0.949 0.907-0.978v-0.559z" fill="#53565a"/></g><g id="g932" transform="translate(296.1582,79.9287)"><path id="path934" d="m0 0c0-0.811 0.14-0.978 0.95-1.007v-0.559h-3.605v0.559c0.781 0.043 0.95 0.182 0.95 0.978v6.584c0 1.02-0.225 1.16-1.008 1.188v0.531l2.293 0.392h0.209c0.085-0.21 0.211-0.671 0.211-1.384z" fill="#53565a"/></g><g id="g936" transform="translate(299.5977,82.5)"><path id="path938" d="m0 0h2.601c0 1.692-0.351 2.278-1.231 2.278-0.824 0-1.273-0.53-1.37-2.278m3.899-2.725 0.307-0.531c-0.712-0.644-1.592-1.048-2.71-1.048-2.098 0-3.328 1.355-3.328 3.703 0 2.32 1.329 3.663 3.202 3.663 1.998 0 2.962-1.259 2.962-3.397v-0.49h-4.346c0.042-1.789 0.657-2.431 2.055-2.431 0.587 0 1.3 0.21 1.858 0.531" fill="#53565a"/></g><g id="g940" transform="translate(309.9297,89.0273)"><path id="path942" d="m0 0 2.768 2.069 0.767-1.58-3.226-0.992zm-0.029-7.002h2.572l-0.697 2.223c-0.309 0.991-0.491 1.733-0.561 2.082h-0.07c-0.096-0.406-0.25-1.048-0.572-2.097zm2.838-0.867h-3.088l-0.405-1.342c-0.056-0.182-0.072-0.322-0.072-0.419 0-0.363 0.295-0.433 0.965-0.462v-0.573h-3.046v0.573c0.63 0.056 0.839 0.225 1.105 1.05l2.613 8.05h1.523l2.668-8.023c0.239-0.713 0.407-1.021 1.049-1.077v-0.573h-3.717v0.573c0.643 0.029 0.895 0.169 0.895 0.504 0 0.111-0.029 0.251-0.07 0.377z" fill="#53565a"/></g><g id="g944" transform="translate(319.9551,84.4287)"><path id="path946" d="m0 0h-1.469v-3.97c0-1.048 0.139-1.383 0.838-1.383 0.252 0 0.49 0.056 0.797 0.154l0.168-0.615c-0.502-0.294-1.033-0.448-1.664-0.448-1.172 0-1.844 0.49-1.844 1.958v4.304h-0.838v0.602l0.938 0.349c0.095 0.642 0.306 1.356 0.64 1.886l1.09 0.168c-0.068-0.502-0.125-1.356-0.125-2.068h1.678z" fill="#53565a"/></g><g id="g948" transform="translate(323.2266,84.3726)"><path id="path950" d="m0 0c0.615 0.658 1.271 1.161 2.363 1.161 1.131 0 1.955-0.672 1.955-2.013v-3.621c0-0.796 0.155-0.935 0.868-0.978v-0.559h-3.481v0.559c0.797 0.029 0.91 0.196 0.91 0.924v3.297c0 0.839-0.351 1.147-0.965 1.147-0.728 0-1.203-0.293-1.65-0.686v-3.758c0-0.728 0.113-0.895 0.908-0.924v-0.559h-3.535v0.559c0.754 0.043 0.908 0.182 0.908 0.978v6.584c0 1.02-0.209 1.16-0.965 1.188v0.531l2.252 0.392h0.209c0.112-0.21 0.223-0.685 0.223-1.384z" fill="#53565a"/></g><g id="g952" transform="translate(332.5684,81.7593)"><path id="path954" d="m0 0c-1.246 0-1.832-0.419-1.832-1.37 0-0.895 0.35-1.159 1.008-1.159 0.502 0 0.992 0.321 1.271 0.755l0.041 1.76c-0.113 0-0.379 0.014-0.488 0.014m3.129-2.684v-0.545c-0.252-0.14-0.713-0.251-1.217-0.251-0.92 0-1.256 0.391-1.353 0.978-0.239-0.461-0.854-1.09-1.928-1.09-1.287 0-2.238 0.657-2.238 2.027 0 1.663 1.341 2.292 3.537 2.292 0.166 0 0.404 0 0.586-0.014v0.629c0 1.132-0.266 1.636-1.118 1.636-0.978 0-1.244-0.574-1.357-1.273h-1.229v1.342c0.67 0.377 1.774 0.755 2.825 0.755 1.592 0 2.599-0.713 2.599-2.349 0-0.419-0.056-1.607-0.056-2.878 0-1.049 0.138-1.217 0.949-1.259" fill="#53565a"/></g><g id="g956" transform="translate(339.0566,83.0874)"><path id="path958" d="m0 0c0 3.396 1.76 5.115 4.346 5.115 1.441 0 2.293-0.279 2.894-0.671v-1.746h-1.271c-0.239 1.061-0.602 1.579-1.664 1.579-1.44 0-2.307-1.006-2.307-4.207 0-3.368 0.938-4.137 2.391-4.137 1.103 0 1.521 0.474 1.718 1.593h1.204v-1.678c-0.532-0.39-1.567-0.74-2.965-0.74-2.893 0-4.346 1.817-4.346 4.892" fill="#53565a"/></g><g id="g960" transform="translate(349.6953,79.9287)"><path id="path962" d="m0 0c0-0.811 0.141-0.978 0.951-1.007v-0.559h-3.605v0.559c0.781 0.043 0.949 0.182 0.949 0.978v6.584c0 1.02-0.225 1.16-1.008 1.188v0.531l2.293 0.392h0.209c0.084-0.21 0.211-0.671 0.211-1.384z" fill="#53565a"/></g><g id="g964" transform="translate(352.8555,86.3438)"><path id="path966" d="m0 0c-0.588 0-1.062 0.476-1.062 1.062 0 0.587 0.474 1.063 1.076 1.063 0.601 0 1.064-0.476 1.064-1.063 0-0.586-0.476-1.062-1.078-1.062m-1.678-7.981v0.559c0.756 0.043 0.922 0.182 0.922 0.978v3.369c0 1.02-0.18 1.16-0.935 1.189v0.53l2.377 0.518h0.265v-5.606c0-0.796 0.111-0.949 0.908-0.978v-0.559z" fill="#53565a"/></g><g id="g968" transform="translate(358.8965,81.7593)"><path id="path970" d="m0 0c-1.246 0-1.832-0.419-1.832-1.37 0-0.895 0.35-1.159 1.008-1.159 0.502 0 0.992 0.321 1.271 0.755l0.041 1.76c-0.113 0-0.379 0.014-0.488 0.014m3.129-2.684v-0.545c-0.252-0.14-0.713-0.251-1.217-0.251-0.92 0-1.256 0.391-1.353 0.978-0.239-0.461-0.854-1.09-1.928-1.09-1.287 0-2.238 0.657-2.238 2.027 0 1.663 1.341 2.292 3.537 2.292 0.166 0 0.404 0 0.586-0.014v0.629c0 1.132-0.266 1.636-1.118 1.636-0.978 0-1.244-0.574-1.357-1.273h-1.229v1.342c0.67 0.377 1.774 0.755 2.825 0.755 1.592 0 2.599-0.713 2.599-2.349 0-0.419-0.056-1.607-0.056-2.878 0-1.049 0.138-1.217 0.949-1.259" fill="#53565a"/></g><g id="g972" transform="translate(366.3906,84.4287)"><path id="path974" d="m0 0h-1.467v-3.97c0-1.048 0.139-1.383 0.838-1.383 0.252 0 0.49 0.056 0.797 0.154l0.168-0.615c-0.504-0.294-1.035-0.448-1.664-0.448-1.174 0-1.846 0.49-1.846 1.958v4.304h-0.838v0.602l0.936 0.349c0.099 0.642 0.306 1.356 0.644 1.886l1.09 0.168c-0.07-0.502-0.125-1.356-0.125-2.068h1.676z" fill="#53565a"/></g><g id="g976" transform="translate(369.6621,84.3726)"><path id="path978" d="m0 0c0.615 0.658 1.271 1.161 2.361 1.161 1.133 0 1.957-0.672 1.957-2.013v-3.621c0-0.796 0.155-0.935 0.866-0.978v-0.559h-3.479v0.559c0.797 0.029 0.908 0.196 0.908 0.924v3.297c0 0.839-0.349 1.147-0.963 1.147-0.728 0-1.203-0.293-1.65-0.686v-3.758c0-0.728 0.113-0.895 0.908-0.924v-0.559h-3.535v0.559c0.754 0.043 0.906 0.182 0.906 0.978v6.584c0 1.02-0.207 1.16-0.963 1.188v0.531l2.25 0.392h0.209c0.114-0.21 0.225-0.685 0.225-1.384z" fill="#53565a"/></g><g id="g980" transform="translate(147.9199,114.9849)"><path id="path982" d="m0 0 0.213-4.06h-1.464c-0.425 2.007-0.613 2.62-2.077 2.62h-1.392v-12.203c0-1.416 0.495-1.699 1.983-1.723v-0.967h-6.987v0.967c1.487 0.024 1.983 0.307 1.983 1.723v12.203h-1.393c-1.463 0-1.629-0.613-2.077-2.62h-1.464l0.237 4.06z" fill="#53565a"/></g><g id="g984" transform="translate(156.3896,110.8071)"><path id="path986" d="m0 0c0.307 0 0.613-0.047 0.802-0.118l-0.59-3.021c-0.307 0.118-0.566 0.165-1.038 0.165-1.864 0-2.408-0.661-2.408-2.714v-3.871c0-1.345 0.236-1.606 1.936-1.652v-0.944h-6.373v0.944c1.275 0.07 1.558 0.307 1.558 1.652v5.689c0 1.722-0.307 1.958-1.581 2.005v0.898l3.469 0.944h0.354c0.165-0.355 0.543-1.44 0.566-2.88 0.755 1.841 2.031 2.903 3.305 2.903" fill="#53565a"/></g><g id="g988" transform="translate(161.1074,112.1289)"><path id="path990" d="m0 0c-0.991 0-1.794 0.803-1.794 1.794s0.803 1.794 1.817 1.794c1.015 0 1.794-0.803 1.794-1.794s-0.802-1.794-1.817-1.794m-2.833-13.477v0.944c1.274 0.071 1.559 0.307 1.559 1.652v5.689c0 1.722-0.307 1.958-1.582 2.005v0.898l4.012 0.873h0.448v-9.465c0-1.345 0.19-1.605 1.535-1.652v-0.944z" fill="#53565a"/></g><g id="g992" transform="translate(177.4854,101.248)"><path id="path994" d="m0 0c0-1.345 0.259-1.582 1.463-1.652v-0.944h-5.877v0.944c1.346 0.047 1.534 0.33 1.534 1.557v5.571c0 1.416-0.59 1.935-1.629 1.935-1.227 0-2.029-0.495-2.785-1.157v-6.349c0-1.227 0.19-1.51 1.534-1.557v-0.944h-5.971v0.944c1.274 0.07 1.558 0.307 1.558 1.652v5.689c0 1.722-0.307 1.958-1.582 2.005v0.898l3.47 0.944h0.354c0.142-0.307 0.495-1.204 0.542-2.101 1.039 1.133 2.243 2.077 4.084 2.077 1.911 0 3.305-1.133 3.305-3.399z" fill="#53565a"/></g><g id="g996" transform="translate(183.2393,112.1289)"><path id="path998" d="m0 0c-0.991 0-1.794 0.803-1.794 1.794s0.803 1.794 1.817 1.794c1.015 0 1.794-0.803 1.794-1.794s-0.802-1.794-1.817-1.794m-2.832-13.477v0.944c1.274 0.071 1.558 0.307 1.558 1.652v5.689c0 1.722-0.307 1.958-1.582 2.005v0.898l4.012 0.873h0.448v-9.465c0-1.345 0.19-1.605 1.535-1.652v-0.944z" fill="#53565a"/></g><g id="g1000" transform="translate(194.5195,108.895)"><path id="path1002" d="m0 0h-2.479v-6.703c0-1.77 0.236-2.337 1.416-2.337 0.425 0 0.827 0.095 1.346 0.26l0.283-1.038c-0.85-0.496-1.748-0.756-2.809-0.756-1.984 0-3.115 0.827-3.115 3.304v7.27h-1.416v1.016l1.581 0.589c0.165 1.085 0.519 2.29 1.085 3.187l1.841 0.283c-0.117-0.85-0.212-2.29-0.212-3.493h2.833z" fill="#53565a"/></g><g id="g1004" transform="translate(197.3252,95.6777)"><path id="path1006" d="m0 0c1.959 0.402 3.444 0.92 4.225 3.092l-1.133-0.118c-0.308 1.227-0.637 2.336-1.322 4.225l-1.841 5.051c-0.425 1.18-0.732 1.463-1.629 1.582v0.967h5.877v-0.967c-1.109-0.048-1.463-0.237-1.463-0.686 0-0.141 0.07-0.354 0.165-0.589l1.652-4.91c0.402-1.156 0.567-2.124 0.638-2.524h0.095c0.047 0.282 0.258 1.179 0.589 2.217l1.629 5.217c0.071 0.213 0.118 0.377 0.142 0.519 0.047 0.543-0.308 0.708-1.487 0.756v0.967h4.72v-0.967c-0.944-0.119-1.252-0.331-1.676-1.535l-3.375-9.464c-1.015-2.809-2.314-4.367-4.886-4.816z" fill="#53565a"/></g><g id="g1008" transform="translate(215.1641,106.6299)"><path id="path1010" d="m0 0c0 5.735 2.974 8.638 7.339 8.638 2.431 0 3.871-0.472 4.885-1.133v-2.95h-2.148c-0.401 1.794-1.013 2.667-2.808 2.667-2.431 0-3.895-1.7-3.895-7.104 0-5.689 1.582-6.987 4.037-6.987 1.863 0 2.572 0.803 2.903 2.69h2.029v-2.832c-0.896-0.66-2.644-1.25-5.003-1.25-4.885 0-7.339 3.068-7.339 8.261" fill="#53565a"/></g><g id="g1012" transform="translate(235.2217,109.4619)"><path id="path1014" d="m0 0c-1.89 0-2.549-1.463-2.549-4.815 0-3.423 0.636-4.98 2.643-4.98 1.675 0 2.525 1.605 2.525 4.956 0 3.517-0.897 4.839-2.619 4.839m0-11.093c-3.471 0-5.688 2.266-5.688 6.183 0 3.825 2.312 6.255 5.758 6.255 3.47 0 5.689-2.313 5.689-6.184 0-4.154-2.549-6.254-5.759-6.254" fill="#53565a"/></g><g id="g1016" transform="translate(247.2305,101.2949)"><path id="path1018" d="m0 0c0-1.369 0.236-1.652 1.604-1.699v-0.944h-6.089v0.944c1.323 0.071 1.606 0.307 1.606 1.652v11.117c0 1.723-0.378 1.959-1.7 2.007v0.896l3.871 0.661h0.354c0.142-0.354 0.354-1.133 0.354-2.337z" fill="#53565a"/></g><g id="g1020" transform="translate(254.7568,101.2949)"><path id="path1022" d="m0 0c0-1.369 0.236-1.652 1.604-1.699v-0.944h-6.089v0.944c1.323 0.071 1.606 0.307 1.606 1.652v11.117c0 1.723-0.378 1.959-1.7 2.007v0.896l3.871 0.661h0.354c0.142-0.354 0.354-1.133 0.354-2.337z" fill="#53565a"/></g><g id="g1024" transform="translate(261.1738,105.6377)"><path id="path1026" d="m0 0h4.391c0 2.856-0.59 3.848-2.077 3.848-1.393 0-2.149-0.898-2.314-3.848m6.585-4.603 0.519-0.896c-1.204-1.085-2.69-1.77-4.579-1.77-3.539 0-5.618 2.29-5.618 6.254 0 3.918 2.244 6.184 5.407 6.184 3.373 0 5.003-2.124 5.003-5.735v-0.827h-7.34c0.07-3.021 1.109-4.106 3.469-4.106 0.992 0 2.195 0.354 3.139 0.896" fill="#53565a"/></g><g id="g1028" transform="translate(277.2676,106.8657)"><path id="path1030" d="m0 0c0 1.888-0.591 2.62-1.864 2.62-1.204 0-1.842-0.732-1.842-2.549 0-1.77 0.661-2.55 1.865-2.55 1.227 0 1.841 0.756 1.841 2.479m-6.964-10.197c0 0.827 0.614 1.369 1.205 1.653l1.745 0.047c-0.165-0.307-0.283-0.708-0.283-1.18 0-1.227 0.686-1.818 2.667-1.818 2.244 0 3.022 0.78 3.022 2.007 0 1.274-0.661 1.581-3.351 1.676-0.921 0.023-1.983 0.094-2.456 0.165-1.155 0.142-1.651 0.991-1.651 1.958 0 1.04 0.968 1.865 2.407 2.267-1.84 0.401-2.95 1.723-2.95 3.422 0 2.431 1.866 3.918 4.768 3.918 0.849 0 1.463-0.142 2.171-0.331 0.591-0.165 1.016-0.283 1.558-0.283 0.755 0 1.51 0.425 2.173 0.945l1.012-1.913c-0.566-0.354-1.131-0.566-1.793-0.566-0.519 0-1.015 0.118-1.605 0.377 0.684-0.496 1.227-1.25 1.227-2.289 0-2.762-2.69-3.587-5.073-3.587h-0.189c-0.661-0.213-1.11-0.591-1.11-1.015 0-0.331 0.189-0.543 0.756-0.567l2.218-0.071c2.903-0.071 4.485-0.849 4.485-3.375 0-2.691-2.432-4.036-5.64-4.036-3.305 0-5.313 1.062-5.313 2.596" fill="#53565a"/></g><g id="g1032" transform="translate(286.0674,105.6377)"><path id="path1034" d="m0 0h4.391c0 2.856-0.591 3.848-2.077 3.848-1.393 0-2.149-0.898-2.314-3.848m6.585-4.603 0.519-0.896c-1.204-1.085-2.69-1.77-4.578-1.77-3.54 0-5.619 2.29-5.619 6.254 0 3.918 2.244 6.184 5.407 6.184 3.375 0 5.003-2.124 5.003-5.735v-0.827h-7.341c0.071-3.021 1.11-4.106 3.47-4.106 0.991 0 2.197 0.354 3.139 0.896" fill="#53565a"/></g><g id="g1036" transform="translate(307.2559,100.0679)"><path id="path1038" d="m0 0c3.211 0 4.674 1.204 4.674 6.491 0 5.428-1.512 7.009-4.603 7.009h-1.604v-13.5zm-6.37-0.449c1.415 0.024 1.745 0.378 1.745 1.723v10.905c0 1.345-0.33 1.723-1.745 1.747v0.991h6.465c4.815 0 7.86-2.407 7.86-8.213 0-5.004-2.359-8.12-7.907-8.12h-6.418z" fill="#53565a"/></g><g id="g1040" transform="translate(328.4941,102.0508)"><path id="path1042" d="m0 0c0-1.723 0.283-1.936 1.58-2.006v-0.85l-3.351-0.85h-0.352c-0.213 0.449-0.52 1.109-0.592 2.007-0.99-1.157-2.148-1.983-3.965-1.983-1.959 0-3.304 0.992-3.304 3.233v5.335c0 1.722-0.307 1.958-1.51 2.006v0.897l3.846 0.873h0.543v-8.473c0-1.369 0.519-1.912 1.63-1.912 1.084 0 1.77 0.425 2.596 1.18v5.429c0 1.722-0.307 1.958-1.512 2.006v0.897l3.848 0.873h0.543z" fill="#53565a"/></g><g id="g1044" transform="translate(338.2598,108.7769)"><path id="path1046" d="m0 0c-1.084 0-2.053-0.565-2.596-1.18v-6.349c0.662-0.684 1.346-1.109 2.479-1.109 1.629 0 2.551 0.944 2.551 4.437 0 3.234-0.852 4.201-2.434 4.201m-3.893-10.125h-1.888c0.211 0.567 0.306 1.227 0.306 2.761v10.952c0 1.724-0.355 1.959-1.629 2.007v0.896l3.799 0.661h0.356c0.187-0.378 0.353-1.157 0.353-2.337v-4.649c0.686 0.944 1.842 1.817 3.541 1.817 2.762 0 4.557-1.959 4.557-6.042 0-4.249-2.008-6.326-5.076-6.326-1.793 0-2.928 0.85-3.565 1.747-0.142-0.449-0.447-1.18-0.754-1.487" fill="#53565a"/></g><g id="g1048" transform="translate(350.0098,101.2949)"><path id="path1050" d="m0 0c0-1.369 0.236-1.652 1.607-1.699v-0.944h-6.089v0.944c1.32 0.071 1.603 0.307 1.603 1.652v11.117c0 1.723-0.379 1.959-1.699 2.007v0.896l3.869 0.661h0.355c0.141-0.354 0.354-1.133 0.354-2.337z" fill="#53565a"/></g><g id="g1052" transform="translate(355.9551,112.1289)"><path id="path1054" d="m0 0c-0.99 0-1.793 0.803-1.793 1.794s0.803 1.794 1.818 1.794c1.016 0 1.795-0.803 1.795-1.794s-0.804-1.794-1.82-1.794m-2.832-13.477v0.944c1.275 0.071 1.561 0.307 1.561 1.652v5.689c0 1.722-0.309 1.958-1.584 2.005v0.898l4.013 0.873h0.449v-9.465c0-1.345 0.19-1.605 1.534-1.652v-0.944z" fill="#53565a"/></g><g id="g1056" transform="translate(372.334,101.248)"><path id="path1058" d="m0 0c0-1.345 0.26-1.582 1.463-1.652v-0.944h-5.877v0.944c1.346 0.047 1.533 0.33 1.533 1.557v5.571c0 1.416-0.59 1.935-1.627 1.935-1.228 0-2.031-0.495-2.785-1.157v-6.349c0-1.227 0.189-1.51 1.533-1.557v-0.944h-5.97v0.944c1.275 0.07 1.558 0.307 1.558 1.652v5.689c0 1.722-0.307 1.958-1.582 2.005v0.898l3.469 0.944h0.355c0.141-0.307 0.494-1.204 0.543-2.101 1.037 1.133 2.241 2.077 4.082 2.077 1.912 0 3.305-1.133 3.305-3.399z" fill="#53565a"/></g><g id="g1060" transform="translate(140.6924,66.7861)"><path id="path1062" d="m0 0h-2.94v1.04h7.129v-1.04h-2.941v-8.704h-1.248z" fill="#0e73b9"/></g><g id="g1064" transform="translate(146.5166,68.6582)"><path id="path1066" d="m0 0h1.219v-2.882l-0.045-1.486c0.683 0.654 1.411 1.189 2.406 1.189 1.516 0 2.198-0.98 2.198-2.822v-4.575h-1.217v4.411c0 1.352-0.416 1.931-1.367 1.931-0.743 0-1.248-0.386-1.975-1.114v-5.228h-1.219z" fill="#0e73b9"/></g><g id="g1068" transform="translate(159.1143,62.2261)"><path id="path1070" d="m0 0c0 1.47-0.653 2.288-1.782 2.288-1.01 0-1.932-0.832-2.079-2.288zm-1.812 3.253c1.842 0 2.881-1.322 2.881-3.387 0-0.252-0.014-0.49-0.044-0.668h-4.872c0.089-1.56 1.025-2.54 2.407-2.54 0.683 0 1.262 0.222 1.796 0.565l0.431-0.802c-0.624-0.401-1.395-0.743-2.376-0.743-1.932 0-3.461 1.411-3.461 3.773 0 2.361 1.589 3.802 3.238 3.802" fill="#0e73b9"/></g><g id="g1072" transform="translate(165.042,67.8257)"><path id="path1074" d="m0 0h1.233v-5.748c0-2.347 0.996-3.089 2.273-3.089 1.292 0 2.303 0.742 2.303 3.089v5.748h1.188v-5.719c0-3.133-1.501-4.203-3.491-4.203s-3.506 1.07-3.506 4.203z" fill="#0e73b9"/></g><g id="g1076" transform="translate(174.5508,65.3013)"><path id="path1078" d="m0 0h1.01l0.104-1.04h0.044c0.684 0.683 1.427 1.218 2.422 1.218 1.515 0 2.198-0.98 2.198-2.822v-4.575h-1.218v4.411c0 1.351-0.415 1.931-1.367 1.931-0.743 0-1.247-0.386-1.975-1.114v-5.228h-1.218z" fill="#0e73b9"/></g><path id="path1080" d="m182.677 65.301h1.219v-7.219h-1.219zm-0.222 2.273c0 0.475 0.371 0.787 0.846 0.787s0.846-0.312 0.846-0.787c0-0.461-0.371-0.788-0.846-0.788s-0.846 0.327-0.846 0.788" fill="#0e73b9"/><g id="g1082" transform="translate(185.292,65.3013)"><path id="path1084" d="m0 0h1.263l1.366-4.1c0.208-0.713 0.445-1.441 0.669-2.124h0.059c0.207 0.683 0.446 1.411 0.654 2.124l1.366 4.1h1.203l-2.555-7.219h-1.425z" fill="#0e73b9"/></g><g id="g1086" transform="translate(197.7256,62.2261)"><path id="path1088" d="m0 0c0 1.47-0.653 2.288-1.781 2.288-1.011 0-1.932-0.832-2.081-2.288zm-1.812 3.253c1.842 0 2.882-1.322 2.882-3.387 0-0.252-0.015-0.49-0.045-0.668h-4.871c0.088-1.56 1.025-2.54 2.405-2.54 0.684 0 1.263 0.222 1.797 0.565l0.431-0.802c-0.624-0.401-1.395-0.743-2.376-0.743-1.931 0-3.461 1.411-3.461 3.773 0 2.361 1.59 3.802 3.238 3.802" fill="#0e73b9"/></g><g id="g1090" transform="translate(200.5791,65.3013)"><path id="path1092" d="m0 0h1.01l0.104-1.308h0.044c0.49 0.907 1.234 1.486 2.05 1.486 0.312 0 0.536-0.045 0.772-0.149l-0.236-1.069c-0.238 0.074-0.402 0.119-0.699 0.119-0.609 0-1.337-0.446-1.826-1.664v-4.634h-1.219z" fill="#0e73b9"/></g><g id="g1094" transform="translate(205.3916,59.7158)"><path id="path1096" d="m0 0c0.624-0.505 1.264-0.861 2.126-0.861 0.95 0 1.425 0.505 1.425 1.129 0 0.742-0.863 1.069-1.65 1.366-1.023 0.371-2.153 0.862-2.153 2.08 0 1.158 0.921 2.05 2.481 2.05 0.907 0 1.694-0.372 2.243-0.817l-0.578-0.773c-0.491 0.371-1.012 0.639-1.65 0.639-0.905 0-1.323-0.49-1.323-1.04 0-0.683 0.787-0.936 1.604-1.248 1.041-0.386 2.199-0.817 2.199-2.184 0-1.173-0.935-2.153-2.644-2.153-1.025 0-2.005 0.431-2.688 0.995z" fill="#0e73b9"/></g><path id="path1098" d="m211.81 65.301h1.219v-7.219h-1.219zm-0.222 2.273c0 0.475 0.372 0.787 0.846 0.787 0.476 0 0.846-0.312 0.846-0.787 0-0.461-0.37-0.788-0.846-0.788-0.474 0-0.846 0.327-0.846 0.788" fill="#0e73b9"/><g id="g1100" transform="translate(215.6738,64.3052)"><path id="path1102" d="m0 0h-1.071v0.921l1.13 0.075 0.147 2.02h1.025v-2.02h1.947v-0.996h-1.947v-4.01c0-0.891 0.282-1.396 1.115-1.396 0.252 0 0.578 0.104 0.816 0.193l0.238-0.921c-0.401-0.134-0.891-0.267-1.336-0.267-1.544 0-2.064 0.98-2.064 2.406z" fill="#0e73b9"/></g><g id="g1104" transform="translate(220.5469,55.9878)"><path id="path1106" d="m0 0c0.816 0 1.336 0.654 1.633 1.545l0.164 0.535-2.898 7.233h1.264l1.47-3.996c0.222-0.624 0.474-1.366 0.699-2.035h0.059c0.207 0.655 0.416 1.397 0.608 2.035l1.293 3.996h1.187l-2.718-7.813c-0.504-1.426-1.247-2.511-2.702-2.511-0.327 0-0.611 0.06-0.846 0.149l0.235 0.966c0.151-0.045 0.372-0.104 0.552-0.104" fill="#0e73b9"/></g><g id="g1108" transform="translate(233.2334,58.9136)"><path id="path1110" d="m0 0c1.248 0 2.078 1.114 2.078 2.763 0 1.663-0.83 2.792-2.078 2.792-1.234 0-2.08-1.129-2.08-2.792 0-1.649 0.846-2.763 2.08-2.763m0 6.566c1.768 0 3.342-1.382 3.342-3.803 0-2.391-1.574-3.773-3.342-3.773-1.77 0-3.342 1.382-3.342 3.773 0 2.421 1.572 3.803 3.342 3.803" fill="#0e73b9"/></g><g id="g1112" transform="translate(241.7295,67.6621)"><path id="path1114" d="m0 0c-0.268 0.119-0.549 0.179-0.816 0.179-0.683 0-1.01-0.475-1.01-1.396v-1.144h1.529v-0.996h-1.529v-6.223h-1.218v6.223h-0.98v0.921l0.98 0.075v1.144c0 1.47 0.669 2.391 2.109 2.391 0.446 0 0.876-0.104 1.204-0.238z" fill="#0e73b9"/></g><g id="g1116" transform="translate(248.2822,59.0918)"><path id="path1118" d="m0 0c2.273 0 3.416 1.44 3.416 3.907 0 2.451-1.143 3.817-3.416 3.817h-1.114v-7.724zm-2.347 8.734h2.435c3.002 0 4.605-1.737 4.605-4.827 0-3.105-1.603-4.917-4.546-4.917h-2.494z" fill="#0e73b9"/></g><g id="g1120" transform="translate(254.8496,65.3013)"><path id="path1122" d="m0 0h1.232v-4.412c0-1.352 0.402-1.93 1.352-1.93 0.742 0 1.262 0.371 1.945 1.217v5.125h1.218v-7.219h-1.01l-0.104 1.129h-0.043c-0.669-0.788-1.382-1.307-2.378-1.307-1.529 0-2.212 0.98-2.212 2.822z" fill="#0e73b9"/></g><g id="g1124" transform="translate(266.0215,58.9282)"><path id="path1126" d="m0 0c1.187 0 2.064 1.084 2.064 2.867 0 1.589-0.535 2.659-1.901 2.659-0.61 0-1.248-0.342-1.931-0.981v-3.787c0.638-0.549 1.291-0.758 1.768-0.758m-2.986 9.73h1.218v-2.882l-0.031-1.307c0.655 0.579 1.456 1.01 2.259 1.01 1.87 0 2.866-1.441 2.866-3.669 0-2.465-1.471-3.906-3.12-3.906-0.667 0-1.425 0.326-2.064 0.891h-0.043l-0.105-0.713h-0.98z" fill="#0e73b9"/></g><g id="g1128" transform="translate(271.2803,68.6582)"><path id="path1130" d="m0 0h1.218v-9.209c0-0.387 0.164-0.536 0.341-0.536 0.075 0 0.133 0 0.267 0.03l0.163-0.92c-0.163-0.075-0.371-0.119-0.698-0.119-0.919 0-1.291 0.579-1.291 1.633z" fill="#0e73b9"/></g><path id="path1132" d="m275.069 65.301h1.216v-7.219h-1.216zm-0.224 2.273c0 0.475 0.372 0.787 0.847 0.787s0.847-0.312 0.847-0.787c0-0.461-0.372-0.788-0.847-0.788s-0.847 0.327-0.847 0.788" fill="#0e73b9"/><g id="g1134" transform="translate(278.7236,65.3013)"><path id="path1136" d="m0 0h1.01l0.104-1.04h0.043c0.684 0.683 1.427 1.218 2.421 1.218 1.516 0 2.198-0.98 2.198-2.822v-4.575h-1.217v4.411c0 1.351-0.415 1.931-1.367 1.931-0.742 0-1.248-0.386-1.975-1.114v-5.228h-1.217z" fill="#0e73b9"/></g><g id="g1138" transform="translate(119.3779,117.1548)"><path id="path1140" d="m0 0v-50.138c0-27.649-33.096-33.144-33.096-33.144s-33.096 5.495-33.096 33.144v50.138s13.772 1.759 33.096 1.759c19.328 0 33.096-1.759 33.096-1.759" fill="#0e73b9"/></g><g id="g1142" transform="translate(64.1396,110.1494)"><path id="path1144" d="m0 0c-1.254-0.404-1.622 1.233-2.154 1.495 0.77 0.165 1.281-1.445 2.154-1.495m-2.038 0.488c0.295-0.501 0.647-1.064 1.471-1.064 0.823 0 1.43 0.345 1.779 0.883-0.777-0.275-1.48 0.348-1.766 0.721-0.352 0.454-0.748 0.971-1.514 0.971-0.228 0-0.766 0-1.26-0.326 0.703-0.178 1.069-0.829 1.29-1.185" fill="#ffffff"/></g><g id="g1146" transform="translate(76.873,112.2847)"><path id="path1148" d="m0 0c0.876-0.633 2.786-0.686 3.543 0.111 0.559-0.576 2.157-0.654 3.015-0.034 0.636-0.258 1.924-0.92 3.213 0.571-0.712 0.011-1.319 0.39-1.696 0.644-0.588 0.399-1.152 0.773-2.249 0.162-0.947 0.586-1.922 0.633-3.032 0.07-1.166 0.855-2.687 0.353-3.141 0.071-0.899 0.428-2.476 0.47-3.511-0.466-0.68-0.612-1.193-1.585-1.193-2.505 0-1.691 1.046-3.162 3.037-3.296 1.021-0.068 2.642 0.253 4.3 0.395 1.574 0.13 3.185 0.096 4.166-0.306 1.526-0.638 1.573-2.201 0.404-2.574-1.023-0.335-3.736 0.732-4.993-0.128-1.27 1.59-5.021-0.046-6.71 0.26-0.156-0.488-0.546-0.993-1.231-0.898 0.685-0.839 0.367-2.776-1.19-2.869-0.398-1.007-1.347-1.384-2.01-0.928-0.185-0.943-1.621-1.574-2.261-0.951-0.379-0.392-0.648-1.135-0.506-1.531-0.509-0.145-0.65-0.697-1.219-0.821 0.093 0.438 0.071 0.868-0.256 1.088-0.229 0.15-0.567 0.172-0.849-6e-3l-0.822 0.032 0.546-0.314c-0.042-0.064-0.083-0.146-0.115-0.235 0.238 0.111 0.62 0.042 0.792-0.109l-0.054-0.1c-0.749 0.127-1.223-0.203-1.285-0.647l-0.561-0.627 0.68 0.173c0.089-0.119 0.224-0.219 0.367-0.267 0.31-0.101 0.563 0.023 0.603 0.116 0.053 0.127-0.117 0.141-0.117 0.141 0.142 0.075 0.293 0.093 0.348 0.029 0.072-0.097 0.083-0.346-0.191-0.474-0.317-0.153-0.624-0.085-0.803 0.022-0.419-0.684 6e-3 -1.211 0.483-1.323l0.263-0.752 0.141 0.752c0.471 0.087 0.623 0.383 0.702 0.685 0.108-0.057 0.248-0.107 0.392-0.133l0.302-0.65 0.155 0.659c0.038 0.014 0.079 0.031 0.115 0.053 0.437 0.266 0.315 0.72 0.214 0.92 0.473 0.041 0.887 0.159 1.033 0.714 0.545-0.377 1.345-0.142 1.894 0.157l-0.432 0.344s0.954 0.087 1.521 0.389l-0.407 0.317s1.286 0.383 1.529 0.579c-0.024 0.022-0.425 0.24-0.425 0.24s0.916 0.441 1.345 1.557c1.799 0.098 3.27 2.403 5.285 2.611-0.264 0.252-0.616 0.419-0.722 0.447l0.136 0.338c1.298-0.141 1.605-0.761 2.015-1.723 0.411-0.96 1.15-1.664 2.022-1.872 0.873-0.21 1.577-0.089 1.824-0.089 1.026 0 1.632-0.583 1.632-1.608 0-0.381-0.198-0.79-0.307-0.969-0.329-0.099-1.029 0.681-1.627 0.356-0.103-0.053-0.182-0.124-0.245-0.202l-0.725-0.163 0.589-0.186c-0.018-0.161 5e-3 -0.328 0.073-0.481 0.526 0.207 0.81 0.161 1.066 0.125l-0.089-0.277c-0.335 0.018-1.494-0.032-1.381-1.026 0.022-0.184 0.104-0.347 0.225-0.478l-0.178-0.809 0.643 0.548c0.296-0.071 0.653-0.011 0.994 0.232 0.27-0.383 0.703-0.681 1.198-0.617l0.579-0.641-0.104 0.812c0.319 0.197 0.535 0.537 0.203 1.394 0.179-0.071 0.352-0.059 0.495 7e-3l0.449-0.416-0.143 0.695c0.157 0.27 0.172 0.655-0.04 1.008 0.318 0.298 0.537 0.608 0.713 0.884-0.216 0.019-0.536 0.107-0.536 0.107s0.54 0.574 0.674 0.788c-0.369 0.232-0.769 0.44-0.758 0.784h-0.011c0.313 0 0.673 0.202 0.673 0.558 0 0.313-0.258 0.594-0.662 0.594 0 0.417-0.249 0.612-0.567 0.612-0.302 0-0.536-0.221-0.536-0.608h-0.718c0.417 0.694-0.347 2.99-2.975 2.157l-0.239 0.363c1.227 0.743 2.759 0.135 3.874 0.168 1.267 0.035 2.125 0.825 2.125 2.095 0 0.445-0.115 1.534-1.326 2.389 0.633 1.018-0.322 1.647-0.898 1.897-0.072-0.737-0.393-1.157-0.937-1.416 0.023 0.419-0.545 1.196-1.22 1.469-0.058-0.561-0.467-1.256-0.93-1.477 0 0.256-0.413 1.008-1.153 1.325-0.02-0.575-0.441-1.228-0.875-1.489 0 0.452-0.564 1.118-1.226 1.385-0.236-0.676-0.878-1.523-1.942-1.523-1.249 0-2.23 0.982-2.23 2.232 0 0.505 0.165 0.979 0.472 1.37-0.05 0.046-0.196 0.214-0.24 0.262l0.484 0.196c0.772-0.929 2.026-1.091 3.253-0.445" fill="#ffffff"/></g><g id="g1150" transform="translate(77.6445,100.8057)"><path id="path1152" d="m0 0c-0.346 0.293-0.965 1.08-1.222 1.93-0.235 0.01-0.697-0.091-0.952-0.222-0.27-0.249-0.723-1.191-0.723-1.191s-0.746-0.099-1.003-1.317l0.321 0.115c-0.233-0.905 0.054-1.649 0.318-2.123-0.402-0.11-0.858-0.37-1.128-0.615-0.203 0.053-0.218 0.527-0.527 0.803-0.194 0.172-0.502 0.314-0.812 0.012l-0.73 0.025 0.527-0.3c-0.032-0.049-0.062-0.107-0.089-0.17 0.203-0.082 0.561-0.269 0.628-0.335l-0.108-0.228c-0.819 0.438-1.556 0.236-1.616-0.317-3e-3 -0.042-8e-3 -0.089-9e-3 -0.137l-0.577-0.598 0.665 0.191c0.081-0.127 0.226-0.224 0.48-0.239-0.666-0.594-0.154-1.338 0.362-1.434l0.367-0.75 0.011 0.75c0.544 0.086 0.671 0.545 0.802 0.769 0.107-0.092 0.252-0.149 0.405-0.174l0.256-0.665 0.189 0.703c0.051 0.024 0.103 0.05 0.146 0.08 0.447 0.312 0.241 0.792 0.241 0.792s0.702-0.092 1.005 0.37c0.477-0.103 0.929-0.085 1.456 0.062-7e-3 0.025-0.378 0.458-0.378 0.458s0.73-0.042 1.047 0.24c-0.121 0.337-0.149 0.544-0.154 0.818h0.115c0.314 0 0.632 0.158 0.648 0.573 9e-3 0.282-0.247 0.544-0.535 0.544h-0.239c-0.056 0.562 0.269 1.257 0.813 1.58" fill="#ffffff"/></g><g id="g1154" transform="translate(62.8789,103.2974)"><path id="path1156" d="m0 0c-0.229 0.655-0.24 1.627 7e-3 2.385h-0.864c0.033 0.904-1.476 1.002-1.509 1.375 0.294 0.494 0.676 0.291 1.065 0.665 0.279 0.261 0.279 0.623 0.054 0.883l0.257 0.597-1.216-0.84-0.161 0.089c0.121 0.229 0.752 0.671 0.511 1.133-0.076 0.135-0.185 0.244-0.332 0.312l-0.355 0.774-0.137-0.745c-0.146-0.049-0.293-0.159-0.417-0.341 0.258-0.129 0.34-0.652 0.253-0.961-0.052-0.186-0.284-0.373-0.311-0.506 0.031-0.022 0.157-0.053 0.157-0.053-9e-3 -0.167-0.115-0.294-0.28-0.238-0.165 0.053-0.187 0.338-0.056 0.566 0.134 0.227 0.3 0.597 0.036 0.931-0.177 0.22-0.507 0.275-0.76 0.09l-0.565 0.349 0.276-0.818c-0.173-0.673 0.103-1.098 0.103-1.098-0.091-0.038-0.21-0.113-0.318-0.219l-0.837 0.327 0.595-0.802c-6e-3 -0.073 0-0.156 0.026-0.246 0.114-0.424 0.61-0.551 0.751-0.572-0.173-0.41 0.082-1.036 0.551-1.033 4e-3 -0.415 0.126-1.02 0.627-1.515l0.126 0.643c0.125-0.117 0.631-0.964 0.751-1.06 9e-3 8e-3 0.158 0.583 0.158 0.583s0.542-0.979 1.814-0.655" fill="#ffffff"/></g><g id="g1158" transform="translate(66.2549,113.4058)"><path id="path1160" d="m0 0 0.099-0.127c0.023 0.014 0.048 0.031 0.076 0.053 0.157 0.106 0.399 0.252 0.793 0.252 0.397 5e-3 0.768-0.261 0.826-0.274l-0.231-0.305c-0.049 0.015-0.104 0.027-0.157 0.045-0.018-0.092-0.05-0.178-0.12-0.252-0.091-0.092-0.217-0.142-0.34-0.142-0.11 0-0.217 0.043-0.308 0.121-0.068 0.071-0.111 0.16-0.126 0.252-0.033-0.021-0.062-0.039-0.09-0.059-0.05-0.037-0.099-0.065-0.146-0.092-0.042-0.023-0.086-0.033-0.128-0.033-0.095 0-0.187 0.053-0.242 0.139-0.067 0.113-0.071 0.298 0.094 0.422m-1.776-0.943c-0.091 0.214 0.075 0.367 0.105 0.389 0.121 0.092 0.293 0.074 0.402-0.039 0.113-0.122 0.113-0.3 0-0.439-0.185-0.217-0.707-0.338-1-0.315 0.083-0.872 0.845-0.98 1.122-0.969 0.594 0.035 1.092 0.26 1.462 0.497 0.175 0.115 0.361 0.236 0.562 0.321 0.286 0.128 0.698 0.044 0.615-0.374l-0.161-0.774c-0.132-0.614-0.363-0.552-0.815-0.65-0.728-0.148-2.485-0.298-2.106-1.633 0.186 0.062 0.684 0.249 0.946 0.459l0.643-0.291c0.535 0.94 1.686 0.326 2.164 1.593l0.328-0.066c-0.112-2.118-3.884-1.944-5.107-3.849-0.726-1.127-0.602-3.313 0.618-4.559-0.066-6e-3 -0.135-0.019-0.205-0.035-0.264-0.082-0.591-0.318-0.591-0.699 0-0.385 0.307-0.696 0.69-0.696 0.237 0 0.456 0.121 0.585 0.317 0.011 0.334 0.309 0.725 0.794 0.777-0.232 0.746-1.797 1.799-1.108 3.718l0.268-0.108c-0.372-1.754 1.519-2.936 1.353-4.028-0.034-0.192-0.134-0.266-0.286-0.266-0.114 0-0.138 0.103-0.033 0.18l-0.043 0.175c-0.193-0.038-0.307-0.172-0.36-0.249-0.088-0.14-0.119-0.303-0.085-0.438 0.039-0.132 0.135-0.246 0.272-0.318 0.207-0.107 0.476-0.116 0.746-0.021 0.475 0.169 0.918 0.652 0.848 1.246 0 0-0.065 0.445 0.03 0.659-1.015 0.839-1.916 2.535-1.158 4.35l0.281-0.1c-0.429-1.228 0.194-3.366 1.729-4.303 0.11-0.068 0.161-0.289 0.037-0.39-0.092-0.056-0.203-0.087-0.176 0.069 0 0-0.188 0.089-0.27 0.133-0.042-0.193 0.025-0.435 0.139-0.534 0.101-0.101 0.251-0.157 0.425-0.157 0.463 0 0.872 0.424 0.984 1.013 0.262 1.321-2.307 2.418-1.36 4.774l0.346-0.074c-0.597-2.528 1.603-2.554 1.595-4.557 0.603 0.037 1.03 0.665 0.828 1.424-0.261 1.011-1.716 1.353-1.173 2.925l0.336-0.056c-0.192-0.464-0.144-1.036 0.312-1.421 0.364-0.311 0.809-0.308 1.18-0.086 0.408 0.249 0.478 0.76 0.298 1.208-0.912 0.038-1.091 0.839-1.148 1.675-0.03 0.528 0.045 1.1-0.314 1.535 0.836 0.313 0.658 1.161 0.428 1.428 0.502 0.327 0.157 1.006-0.072 1.172 0.254 0.191 0.571 0.443 0.584 1.236-0.266-8e-3 -0.508-0.056-0.773 0.054 0.204 0.232 0.174 0.51 0.14 0.67-0.034 0.146-0.161 0.48-0.653 0.495-0.49 0.013-0.693-0.271-0.725-0.593 0 0-0.594 0.101-0.997 0.193-0.668 0.164-1.66 0.388-1.989 0.053l-0.614-0.643s-0.891 0.057-1.667-0.309c-0.058-0.354 0.028-0.93 0.794-0.699" fill="#ffffff"/></g><g id="g1162" transform="translate(101.9355,92.8916)"><path id="path1164" d="m0 0c-0.111-0.575 0.457-0.979 0.947-0.979h5e-3c0.541 0 1.554 0.237 2.24 1.869 0.358 0.842 0.379 1.821-0.075 2.402-0.382 0.487-1.2 0.753-1.588 0.312 0.769-0.145 0.881-1.349 0.516-2.26-0.367-0.917-1.134-1.593-2.045-1.344" fill="#ffffff"/></g><g id="g1166" transform="translate(103.1367,96.2729)"><path id="path1168" d="m0 0c-3.543 2.081-7.362 7.182-6.311 14.434-0.378-0.108-0.942-0.125-1.289-0.116-1.132-6.158-0.374-12.864 6.251-17.224 1.382-0.387 2.446 1.946 1.349 2.906" fill="#ffffff"/></g><g id="g1170" transform="translate(110.8223,114.126)"><path id="path1172" d="m0 0c-0.109 9e-3 -0.225 0.018-0.346 0.018-0.938 0-2.048-0.347-3.221-0.709-1.378-0.431-2.944-0.919-4.529-0.919-1.416 0-2.646 0.392-3.758 1.201-0.097 0.068-0.199 0.139-0.305 0.21-0.923 0.64-1.534 1.06-2.61 1.06-1.122 0-2.036-0.876-2.036-1.949 0-1.044 0.859-1.703 1.899-1.703 0.802 0 1.287 0.434 1.327 1.012 0.028 0.387-0.073 0.774-0.721 0.963l0.154 0.558c1.025-0.166 1.695-1.248 1.055-2.319 0.812-0.772 2.777-1.417 4.287-1.417 1.799 0 3.427 0.64 4.868 1.2 1.178 0.46 2.192 0.857 3.127 0.857 0.144 0 0.282-0.01 0.418-0.029l7e-3 -3e-3 -0.222-0.587 2.221-0.787 0.246 0.661c0.077 0.219 0.124 0.461 0.124 0.695 0 1.047-0.818 1.866-1.985 1.987" fill="#ffffff"/></g><g id="g1174" transform="translate(105.4375,89.4116)"><path id="path1176" d="m0 0h-1e-3l0.099 0.493-4.077 1.492-0.226-0.451-2e-3 5e-3c-0.049 0.011-0.088 0.018-0.134 0.018-0.24 0-0.44-0.147-0.525-0.36-0.094-0.267 0.027-0.561 0.282-0.683l-0.14-0.554 4.081-1.492 0.269 0.509h1e-3c0.041-0.012 0.077-0.015 0.117-0.015 0.231 0 0.443 0.142 0.523 0.359 0.094 0.261-0.021 0.555-0.267 0.679" fill="#ffffff"/></g><g id="g1178" transform="translate(109.832,111.0439)"><path id="path1180" d="m0 0-0.22-0.581-0.186 0.067-0.321-0.729 3.115-1.121 0.217 0.765-0.184 0.069 0.184 0.6z" fill="#ffffff"/></g><g id="g1182" transform="translate(105.7266,96.6172)"><path id="path1184" d="m0 0-0.357 0.605 4.586 11.689-0.755 0.282-0.269-0.631-1.284 2.189c-0.152-0.057-0.306-0.117-0.464-0.185-0.022-3e-3 -0.047-0.011-0.066-0.02l1.541-2.625-0.532-1.252-2.045 3.48c-0.179-0.06-0.355-0.128-0.537-0.188l2.307-3.93-0.533-1.248-2.855 4.857c-0.185-0.046-0.378-0.091-0.57-0.131l3.156-5.367c-0.022-0.047-0.525-1.228-0.537-1.261l-3.797 6.46c-0.205-0.015-0.401-0.023-0.612-0.028l4.146-7.051c-0.117-0.271-0.536-1.261-0.536-1.261l-4.954 8.423c-0.246 0.042-0.495 0.089-0.737 0.152l5.418-9.21s-0.43-1.008-0.533-1.254l-6.481 11.03c-0.387 0.183-0.721 0.377-1 0.595l7.209-12.258s-0.498-1.18-0.593-1.397c1.299 0.201 2.401-1.503 1.584-3.472-0.636-1.537-1.587-2.103-2.283-2.183l2.066-0.748 6.134 17.642-1.066 0.394z" fill="#ffffff"/></g><path id="path1186" d="m87.59 51.944h-1.042v1.047h1.042zm-1.604 0h-1.04v1.047h1.04zm2.161 0v1.047h0.791c-0.095 0.203-0.212 0.386-0.342 0.561h-0.449v0.453c-0.17 0.138-0.359 0.26-0.557 0.356v-0.809h-1.042v0.802h-0.562v-0.802h-1.04v0.774c-0.198-0.112-0.384-0.243-0.557-0.392v-0.382h-0.368c-0.131-0.175-0.245-0.358-0.346-0.561h0.714v-1.047h-0.986c-6e-3 -0.065-0.011-0.133-0.011-0.198v-0.363h0.997v-1.001h0.557v1.001h1.04v-1.001h0.562v1.001h1.042v-1.001h0.557v1.001h1.076v0.363c0 0.065-7e-3 0.133-0.01 0.198z" fill="#ffffff"/><g id="g1188" transform="translate(67.3115,66.873)"><path id="path1190" d="m0 0c0.049 0.01 0.099 0.023 0.148 0.035l0.592 0.124 0.665-1.663c0.169 0.014 0.343 0.03 0.53 0.04v1.775h2.946l-6e-3 -1.775c0.185-0.01 0.361-0.026 0.539-0.042l0.625 1.644 0.569-0.091 0.19-0.024c-0.191 1.711-1.64 3.047-3.399 3.047-1.77 0-3.227-1.344-3.399-3.07" fill="#ffffff"/></g><g id="g1192" transform="translate(97.8232,59.6182)"><path id="path1194" d="m0 0c0.037 0.372 0.267 0.691 0.539 0.886l0.051 1.982h-1.537v-2.423h-3.019v2.423h-3.018v-2.423h-3.021v2.423h-3.022v-2.423h-3.012v2.423h-3.02v-2.423h-3.021v2.423h-1.535l0.048-1.982c0.273-0.195 0.508-0.514 0.54-0.884 0.03-0.376-0.138-0.726-0.433-0.935l0.021-0.37h23.849l0.02 0.37c-0.288 0.209-0.462 0.559-0.43 0.933" fill="#ffffff"/></g><g id="g1196" transform="translate(78.7256,54.1958)"><path id="path1198" d="m0 0v-2.192h-1.701v3.574c0 0.35 0.488 0.779 0.696 0.947l0.152 0.122h2e-3l0.157-0.122c0.211-0.168 0.694-0.597 0.694-0.947zm6.022 2.669-0.056 0.764h-10.275l0.527-10.839h6.033v4.983c0 2.396 1.591 4.421 3.771 5.092" fill="#ffffff"/></g><g id="g1200" transform="translate(81.5605,51.7495)"><path id="path1202" d="m 0,0 v -0.677 h 1.195 v 0.661 c 0,0.199 0.02,0.394 0.055,0.587 L 0.087,0.886 C 0.028,0.592 0,0.297 0,0" fill="#ffffff"/></g><path id="path1204" d="m81.561 46.768h1.195v1.466h-1.195z" fill="#ffffff"/><path id="path1206" d="m81.561 48.925h1.195v1.457h-1.195z" fill="#ffffff"/><g id="g1208" transform="translate(89.8096,52.3203)"><path id="path1210" d="m0 0c0.032-0.193 0.049-0.388 0.049-0.586v-0.662h1.2v0.677c0 0.298-0.031 0.589-0.088 0.886z" fill="#ffffff"/></g><g id="g1212" transform="translate(82.7275,54.8516)"><path id="path1214" d="m0 0c-0.401-0.451-0.712-0.984-0.903-1.551l1.17-0.315c0.133 0.364 0.333 0.702 0.578 1.006z" fill="#ffffff"/></g><path id="path1216" d="m89.858 46.768h1.2v1.466h-1.2z" fill="#ffffff"/><g id="g1218" transform="translate(89.8994,54.8516)"><path id="path1220" d="m0 0-0.858-0.86c0.254-0.304 0.453-0.642 0.587-1.006l1.168 0.315c-0.195 0.567-0.501 1.1-0.897 1.551" fill="#ffffff"/></g><path id="path1222" d="m89.858 48.925h1.2v1.457h-1.2z" fill="#ffffff"/><g id="g1224" transform="translate(87.252,57.6108)"><path id="path1226" d="m0 0h-1.885l0.194-2.799h1.502z" fill="#ffffff"/></g><g id="g1228" transform="translate(84.8711,54.9751)"><path id="path1230" d="m0 0-0.088 1.268c-0.575-0.199-1.116-0.506-1.572-0.904l0.851-0.862c0.242 0.199 0.517 0.368 0.809 0.498" fill="#ffffff"/></g><g id="g1232" transform="translate(89.4111,55.3394)"><path id="path1234" d="m0 0c-0.456 0.397-1.003 0.707-1.576 0.903l-0.087-1.267c0.295-0.13 0.567-0.299 0.81-0.498z" fill="#ffffff"/></g><g id="g1236" transform="translate(68.333,62.3203)"><path id="path1238" d="m0 0 0.026 0.52 0.041 0.01s0.109 0.013 0.152 0.021c0.697 0.111 1.487 0.168 2.271 0.168 0.514 0 1.014-0.026 1.486-0.073l-0.034-0.561c-0.462 0.049-0.946 0.071-1.452 0.071-0.283 0-0.581-0.012-0.903-0.026l-0.04-1.958-0.558-0.046 0.042 1.959c-0.285-0.026-0.513-0.053-0.73-0.089-0.072-8e-3 -0.125-0.017-0.197-0.025l-0.105-0.022zm-0.46-2.269c-0.707-0.134-0.711-0.935-0.088-0.89v4e-3c1.42 0.227 4.439 0.258 5.84 0 0.656-0.074 0.666 0.766-0.077 0.886l-0.065 2.728 1.559 3.222c-0.328 0.084-0.584 0.118-0.955 0.171-0.085 0.012-0.173 0.027-0.272 0.041l-0.622-1.616-0.19 0.022c-0.412 0.041-0.845 0.077-1.289 0.1l-0.241 6e-3 2e-3 1.744h-1.512v-1.748h-0.251c-0.463-0.025-0.874-0.061-1.274-0.1l-0.193-0.02-0.634 1.604c-0.383-0.086-0.836-0.197-1.144-0.299l1.461-3.131z" fill="#ffffff"/></g><g id="g1240" transform="translate(72.3555,58.7129)"><path id="path1242" d="m0 0 0.053-1.94c0.356-9e-3 0.665-0.028 0.925-0.05l0.026-0.561h-0.01c-0.597 0.05-1.443 0.071-2.596 0.071-0.399 0-0.752 0-1.078-4e-3l-0.115-3.164c0.372-9e-3 0.773-0.015 1.193-0.015 1.188 0 2.137 0.034 2.754 0.093l0.026-0.559c-0.278-0.025-0.613-0.047-1.01-0.063l0.092-3.153c0.494 0.067 0.834 0.146 1.063 0.213l0.029-0.577c-0.732-0.189-1.763-0.299-2.944-0.299-0.488 0-0.958 0.018-1.402 0.053l-0.094-3.096c-0.208 0.018-0.385 0.041-0.556 0.071l0.089 3.086c-0.449 0.053-0.85 0.128-1.172 0.221l0.037 0.576 0.018-6e-3c0.7-0.222 1.819-0.346 3.08-0.346 0.458 0 0.89 0.013 1.294 0.045l-0.092 3.196c-0.37-9e-3 -0.777-0.013-1.212-0.013-1.268 0-2.245 0.037-2.919 0.102l0.034 0.561h5e-3c0.307-0.034 0.681-0.053 1.134-0.071l0.106 3.131c-0.419-0.013-0.776-0.031-1.077-0.057l0.032 0.561c0.637 0.054 1.485 0.075 2.685 0.075 0.4 0 0.768-2e-3 1.091-6e-3l-0.051 1.95c-1.445 0.044-3.177-0.035-4.034-0.198l-0.715-12.65c0.101-0.218 1.26-0.708 3.666-0.708 2.508 0 3.488 0.519 3.558 0.702l-0.613 12.678c-0.324 0.07-0.781 0.115-1.3 0.151" fill="#ffffff"/></g><g id="g1244" transform="translate(99.2646,67.0107)"><path id="path1246" d="m0 0 0.629-1.644c0.174 0.016 0.353 0.032 0.536 0.042l-4e-3 1.775h2.942v-1.775c0.187-0.01 0.363-0.026 0.535-0.04l0.666 1.663 0.592-0.124c0.049-0.011 0.098-0.025 0.147-0.035-0.174 1.726-1.629 3.071-3.397 3.071-1.759 0-3.214-1.337-3.403-3.047l0.189 0.023z" fill="#ffffff"/></g><g id="g1248" transform="translate(104.1797,62.291)"><path id="path1250" d="m0 0c-0.064 8e-3 -0.128 0.018-0.19 0.025-0.212 0.036-0.456 0.063-0.733 0.089l0.045-1.958-0.561 0.045-0.046 1.958c-0.324 0.014-0.616 0.026-0.893 0.026-0.505 0-0.994-0.022-1.459-0.071l-0.033 0.561c0.475 0.047 0.974 0.073 1.492 0.073 0.781 0 1.562-0.057 2.269-0.167 0.047-8e-3 0.146-0.022 0.146-0.022l0.05-0.01 0.025-0.52v-0.05zm0.187 2.311-0.189 0.019c-0.391 0.04-0.817 0.075-1.268 0.101h-0.253v1.747h-1.509l4e-3 -1.743-0.248-6e-3c-0.442-0.024-0.874-0.059-1.286-0.101l-0.196-0.021-0.621 1.615c-0.096-0.013-0.185-0.029-0.274-0.041-0.366-0.053-0.626-0.087-0.951-0.171l1.555-3.222-0.056-2.728c-0.747-0.12-0.737-0.96-0.082-0.885 1.398 0.257 4.425 0.226 5.838 0v-4e-3c0.628-0.046 0.62 0.755-0.081 0.889l-0.059 2.724 1.464 3.132c-0.313 0.102-0.763 0.212-1.144 0.299z" fill="#ffffff"/></g><g id="g1252" transform="translate(100.833,58.7383)"><path id="path1254" d="m0 0-0.056-1.95c0.324 4e-3 0.693 6e-3 1.084 6e-3 1.204 0 2.064-0.022 2.693-0.075l0.032-0.561c-0.299 0.025-0.653 0.043-1.077 0.057l0.107-3.131c0.446 0.017 0.828 0.037 1.131 0.071h7e-3l0.031-0.562c-0.665-0.064-1.65-0.102-2.924-0.102-0.43 0-0.842 4e-3 -1.205 0.014l-0.095-3.196c0.405-0.032 0.834-0.046 1.289-0.046 1.273 0 2.389 0.124 3.087 0.347l0.015 6e-3 0.035-0.577c-0.32-0.093-0.716-0.167-1.166-0.22l0.087-3.086c-0.167-0.03-0.354-0.054-0.56-0.071l-0.084 3.096c-0.448-0.036-0.925-0.054-1.414-0.054-1.173 0-2.208 0.111-2.939 0.3l0.03 0.576c0.226-0.067 0.572-0.145 1.066-0.212l0.084 3.153c-0.39 0.015-0.725 0.037-1.004 0.063l0.022 0.559c0.621-0.059 1.568-0.093 2.752-0.093 0.428 0 0.822 6e-3 1.193 0.014l-0.106 3.165c-0.328 4e-3 -0.685 4e-3 -1.087 4e-3 -1.15 0-1.992-0.022-2.596-0.071h-8e-3l0.025 0.561c0.266 0.021 0.576 0.041 0.932 0.049l0.053 1.941c-0.527-0.036-0.982-0.081-1.307-0.152l-0.612-12.677c0.069-0.183 1.055-0.703 3.563-0.703 2.401 0 3.565 0.491 3.658 0.709l-0.707 12.649c-0.859 0.164-2.59 0.242-4.029 0.199" fill="#ffffff"/></g><g id="g1256" transform="translate(93.8525,54.1899)"><path id="path1258" d="m0 0v1.388c0 0.35 0.482 0.779 0.694 0.946l0.153 0.123h2e-3l0.155-0.123c0.21-0.167 0.693-0.596 0.693-0.946v-3.575h-1.697zm-5.975 2.655c2.173-0.673 3.761-2.702 3.761-5.095v-4.982h6.04l0.522 10.843h-10.269z" fill="#ffffff"/></g><g id="g1260" transform="translate(68.3408,77.5537)"><path id="path1262" d="m0 0v-2.108h-1.299v2.108h-2.105v1.299h2.105v2.115h1.299v-2.115h2.088v-1.299zm2.001 5c0 0.2 0.168 0.367 0.369 0.367 0.199 0 0.365-0.163 0.365-0.367 0-0.206-0.163-0.367-0.365-0.367-0.205 0-0.369 0.164-0.369 0.367m0.087-12.079h0.562v11.257c0.34 0.12 0.592 0.44 0.592 0.822 0 0.484-0.392 0.877-0.872 0.877-0.485 0-0.875-0.393-0.875-0.877 0-0.382 0.247-0.705 0.593-0.822v-0.205h-6.057v-6.643h6.057z" fill="#ffffff"/></g><g id="g1264" transform="translate(107.6865,80.0308)"><path id="path1266" d="m0 0-1.837-1.836 1.837-1.834v-0.915h-0.917l-1.832 1.837-1.838-1.837h-0.911v0.93l1.828 1.824-1.828 1.824v0.944h0.89l1.851-1.856 1.851 1.856h0.908zm-5.772 2.156c-0.21 0-0.371 0.161-0.371 0.367 0 0.204 0.164 0.367 0.371 0.367 0.2 0 0.368-0.167 0.368-0.367 0-0.203-0.164-0.367-0.368-0.367m0.274-0.66v0.205c0.343 0.117 0.602 0.44 0.602 0.822 0 0.484-0.398 0.877-0.876 0.877-0.483 0-0.879-0.393-0.879-0.877 0-0.382 0.257-0.702 0.6-0.822v-11.257h0.553v4.409h6.06v6.643z" fill="#ffffff"/></g><g id="g1268" transform="translate(79.8447,70.709)"><path id="path1270" d="m0 0v18.448h12.527c0.955 0 1.889-0.133 2.196-1.1 0.163-0.487 0.102-0.979-0.163-1.347-0.242-0.333-0.614-0.515-1.06-0.515l-10.773-3e-3v-1.196c0.137 0.032 0.277 0.053 0.426 0.053 0.078 0 0.17-6e-3 0.251-0.021v0.484h0.185s9.504 3e-3 10.239 3e-3c0.604 0 1.121 0.288 1.463 0.801l0.027 0.047c0.015 0.014 0.023 0.033 0.038 0.053v7e-3l0.04 0.065c0.264 0.415 0.328 1.149 0.152 1.7-0.355 1.086-1.282 1.709-2.558 1.709h-13.727v-19.761h1.717c-0.459 0.352-0.818 0.504-0.824 0.51z" fill="#ffffff"/></g><g id="g1272" transform="translate(82.5713,77.9482)"><path id="path1274" d="m0 0v-1.537c0.135 0.035 0.277 0.057 0.427 0.057 0.078 0 0.17-0.011 0.251-0.022v1.469c-0.081-0.013-0.173-0.024-0.251-0.024-0.15 0-0.292 0.024-0.427 0.057" fill="#ffffff"/></g><g id="g1276" transform="translate(77.1396,75.2075)"><path id="path1278" d="m0 0 0.017 0.181c0.045 0.713-0.178 1.282-0.541 1.361-0.055 9e-3 -0.107 0.018-0.154 0.018-0.11 0-0.341 0-0.384-0.506l-0.046-0.424-0.347 0.236c-0.068 0.045-0.13 0.066-0.191 0.066-0.165 0-0.331-0.206-0.394-0.493-0.103-0.454 0.049-1.104 0.792-1.453l0.157-0.071-8e-3 -0.172c-0.031-0.517 0.169-0.889 0.528-0.979 0.307-0.073 0.434 0.267 0.448 0.427l0.027 0.343 0.318-0.124c0.14-0.053 0.44-0.15 0.804-0.15 0.149 0 0.29 0.013 0.433 0.045v1.446c-0.422-0.05-0.906 0.02-1.29 0.178z" fill="#ffffff"/></g><g id="g1280" transform="translate(77.1396,86.5146)"><path id="path1282" d="m0 0 0.017 0.178c0.045 0.717-0.178 1.282-0.541 1.361-0.055 0.015-0.107 0.018-0.154 0.018-0.11 0-0.341 0-0.384-0.506l-0.046-0.423-0.347 0.238c-0.068 0.042-0.13 0.068-0.191 0.068-0.165 0-0.331-0.208-0.394-0.495-0.103-0.457 0.049-1.107 0.792-1.453l0.157-0.074-8e-3 -0.17c-0.031-0.513 0.169-0.89 0.528-0.979 0.307-0.076 0.434 0.267 0.448 0.427l0.027 0.342 0.318-0.125c0.14-0.053 0.44-0.15 0.804-0.15 0.149 0 0.29 0.017 0.433 0.045v1.445c-0.422-0.044-0.906 0.022-1.29 0.179z" fill="#ffffff"/></g><g id="g1284" transform="translate(93.7393,68.8018)"><path id="path1286" d="m0 0h-10.49v0.537c-0.081-0.012-0.173-0.021-0.251-0.021-0.15 0-0.289 0.021-0.427 0.055v-1.252h11.127c0.632 0 1.442 0.246 1.688 0.701 0.104 0.196 0.098 0.421-0.017 0.677-0.318-0.473-0.975-0.697-1.63-0.697" fill="#ffffff"/></g><g id="g1288" transform="translate(82.5713,73.1719)"><path id="path1290" d="m0 0v-0.557c0.138 0.037 0.277 0.059 0.427 0.059 0.078 0 0.17-8e-3 0.251-0.022v0.485c-0.081-0.012-0.173-0.018-0.251-0.018-0.15 0-0.289 0.014-0.427 0.053" fill="#ffffff"/></g><g id="g1292" transform="translate(80.5518,88.2734)"><path id="path1294" d="m0 0v-17.112c0.21-0.112 0.494-0.282 0.807-0.53-0.027 0.113-0.042 0.237-0.042 0.359 0 0.492 0.21 0.929 0.539 1.235v1.333c-0.329 0.307-0.539 0.745-0.539 1.234 0 0.498 0.208 0.934 0.539 1.24v2.297c-0.331 0.302-0.539 0.744-0.539 1.241 0 0.493 0.21 0.927 0.539 1.238v1.329c-0.329 0.31-0.539 0.744-0.539 1.232 0 0.487 0.21 0.929 0.539 1.235v2.299h0.274c-0.471 0.676-1.103 1.118-1.578 1.37" fill="#ffffff"/></g><g id="g1296" transform="translate(93.3447,86.9033)"><path id="path1298" d="m0 0c0.211 0 0.381 0.083 0.484 0.222 0.134 0.181 0.152 0.445 0.063 0.718-0.121 0.381-0.41 0.605-1.52 0.605h-10.668c0.464-0.359 0.965-0.869 1.329-1.545z" fill="#ffffff"/></g><g id="g1300" transform="translate(94.1826,69.3057)"><path id="path1302" d="m0 0c0.326 0.065 0.864 0.246 0.916 0.773v15.504c-0.267-0.23-0.578-0.391-0.922-0.473z" fill="#ffffff"/></g><g id="g1304" transform="translate(82.998,81.6919)"><path id="path1306" d="m0 0c-0.149 0-0.289 0.022-0.427 0.054v-0.552c0.138 0.035 0.278 0.058 0.427 0.058 0.078 0 0.17-0.011 0.251-0.023v0.485c-0.081-0.013-0.173-0.022-0.251-0.022" fill="#ffffff"/></g><g id="g1308" transform="translate(84.4443,80.4102)"><path id="path1310" d="m0 0c0.251 0.3 0.384 0.67 0.384 1.062s-0.133 0.762-0.382 1.061c-3e-3 0-3e-3 4e-3 -7e-3 7e-3 -0.168-0.297-0.424-0.53-0.724-0.676v-0.781c0.302-0.145 0.561-0.38 0.729-0.673" fill="#ffffff"/></g><g id="g1312" transform="translate(84.4443,71.8325)"><path id="path1314" d="m0 0c0.251 0.3 0.384 0.67 0.384 1.062s-0.133 0.761-0.384 1.062c-0.168-0.293-0.427-0.531-0.729-0.676v-0.772c0.302-0.145 0.561-0.38 0.729-0.676" fill="#ffffff"/></g><g id="g1316" transform="translate(83.8477,79.5708)"><path id="path1318" d="m0 0c0 0.478-0.379 0.862-0.85 0.862-0.477 0-0.864-0.384-0.864-0.862 0-0.48 0.38-0.86 0.864-0.86 0.471 0 0.85 0.388 0.85 0.86" fill="#ffffff"/></g><g id="g1320" transform="translate(83.8477,74.7925)"><path id="path1322" d="m0 0c0 0.471-0.379 0.854-0.85 0.854-0.484 0-0.864-0.374-0.864-0.854 0-0.475 0.387-0.856 0.864-0.856 0.471 0 0.85 0.381 0.85 0.856" fill="#ffffff"/></g><g id="g1324" transform="translate(82.998,84.2305)"><path id="path1326" d="m0 0c-0.478 0-0.864-0.388-0.864-0.861s0.386-0.858 0.864-0.858c0.471 0 0.85 0.385 0.85 0.858s-0.379 0.861-0.85 0.861" fill="#ffffff"/></g><g id="g1328" transform="translate(83.8477,70.9902)"><path id="path1330" d="m0 0c0 0.477-0.379 0.864-0.85 0.864-0.477 0-0.864-0.387-0.864-0.864 0-0.47 0.387-0.854 0.864-0.854 0.471 0 0.85 0.384 0.85 0.854" fill="#ffffff"/></g><g id="g1332" transform="translate(92.3447,82.3086)"><path id="path1334" d="m0 0-2.585-2.515 2.356-2.412 1.499 1.453-1e-3 2.196z" fill="#ffffff"/></g><g id="g1336" transform="translate(93.6133,83.5366)"><path id="path1338" d="m0 0-0.88-0.854 0.88-0.893z" fill="#ffffff"/></g><g id="g1340" transform="translate(83.7148,69.27)"><path id="path1342" d="m0 0h4.939l-2.009 2.061-0.786-0.78-0.38 0.386 0.798 0.779-0.342 0.348 0.381 0.374 0.339-0.349 2.115 2.047-2.351 2.409-1.092-1.077-0.375 0.384 1.091 1.08-1.099 1.106 0.381 0.373 1.103-1.106 2.572 2.497-2.38 2.432-0.316-0.296-0.362 0.392 0.311 0.288-0.976 0.979 0.381 0.378 0.98-0.99 2.221 2.067h-5.144v-0.166c0.566-0.271 0.954-0.848 0.954-1.516 0-0.023-3e-3 -0.044-3e-3 -0.064 0.56-0.452 0.879-1.119 0.879-1.834 0-0.714-0.319-1.385-0.879-1.836 0-0.018 3e-3 -0.039 3e-3 -0.065 0-0.661-0.388-1.242-0.954-1.512v-1.755c0.566-0.275 0.954-0.847 0.954-1.512 0-0.022-3e-3 -0.04-3e-3 -0.062 0.56-0.455 0.879-1.116 0.879-1.835 0-0.717-0.319-1.383-0.879-1.838 0-0.017 3e-3 -0.043 3e-3 -0.067 0-0.661-0.388-1.236-0.954-1.51z" fill="#ffffff"/></g><g id="g1344" transform="translate(90.3848,85.0522)"><path id="path1346" d="m0 0 1.972-1.99 1.257 1.219-2e-3 0.771z" fill="#ffffff"/></g><g id="g1348" transform="translate(93.6143,78.084)"><path id="path1350" d="m0 0-1.12-1.085 1.124-1.15z" fill="#ffffff"/></g><g id="g1352" transform="translate(93.6182,73.3726)"><path id="path1354" d="m0 0v1.714l-1.511 1.542-2.578-2.504 2.371-2.424z" fill="#ffffff"/></g><g id="g1356" transform="translate(93.6182,72.623)"><path id="path1358" d="m0 0-1.345-1.306 1.346-1.374z" fill="#ffffff"/></g><g id="g1360" transform="translate(87.0156,82.6001)"><path id="path1362" d="m0 0 2.37-2.424 2.584 2.512-2.331 2.358z" fill="#ffffff"/></g><g id="g1364" transform="translate(86.7949,76.9189)"><path id="path1366" d="m0 0 2.361-2.408 2.578 2.497-2.358 2.414z" fill="#ffffff"/></g><g id="g1368" transform="translate(91.5186,71.3286)"><path id="path1370" d="m0 0-2.374 2.423-2.11-2.051 2.368-2.431z" fill="#ffffff"/></g><g id="g1372" transform="translate(91.8887,70.9429)"><path id="path1374" d="m0 0-1.72-1.673h3.366z" fill="#ffffff"/></g></g></g></g></svg>
