<?xml version="1.0" encoding="UTF-8" standalone="no"?>
<svg xmlns:rdf="http://www.w3.org/1999/02/22-rdf-syntax-ns#" xmlns="http://www.w3.org/2000/svg" height="243.26pt" width="895.82pt" version="1.1" xmlns:cc="http://creativecommons.org/ns#" xmlns:xlink="http://www.w3.org/1999/xlink" viewBox="0 0 895.82 243.255" xmlns:dc="http://purl.org/dc/elements/1.1/">
 <desc>https://commons.wikimedia.org/wiki/File:Qcircuit_measurement-commute.svg</desc>
 <defs>
  <symbol id="glyph0-1" overflow="visible">
   <path d="m22.109-12.453c0-5.328-4.421-9.656-9.656-9.656-5.3749 0-9.7186 4.421-9.7186 9.656 0 5.2811 4.3437 9.6561 9.7186 9.6561 5.235 0 9.656-4.3281 9.656-9.6561z"/>
  </symbol>
  <symbol id="glyph1-1" overflow="visible">
   <path d="m34.219-16.281c0.75 0 1.703 0 1.703-1s-0.953-1-1.656-1h-29.828c-0.7036 0-1.6411 0-1.6411 1s0.9375 1 1.6875 1zm0.047 9.656c0.703 0 1.656 0 1.656-1s-0.953-1-1.703-1h-29.735c-0.7496 0-1.6871 0-1.6871 1s0.9375 1 1.6406 1z"/>
  </symbol>
  <symbol id="glyph2-1" overflow="visible">
   <path d="m31.625-28.797c0.5-2.031 1.406-3.531 5.391-3.687 0.25 0 0.843-0.047 0.843-0.985 0-0.062 0-0.547-0.656-0.547-1.641 0-3.375 0.141-5.078 0.141-1.687 0-3.531-0.141-5.172-0.141-0.297 0-0.906 0-0.906 0.985 0 0.547 0.5 0.547 0.906 0.547 2.828 0.062 3.375 1.109 3.375 2.203 0 0.14-0.094 0.89-0.14 1.047l-4.485 17.781c-1.687 6.6718-7.422 11-12.406 11-3.3908-0.00012-6.0782-2.1876-6.0782-6.4689 0-0.1093 0-1.7031 0.5468-3.8901l4.8434-19.376c0.438-1.796 0.547-2.296 4.172-2.296 1.297 0 1.703 0 1.703-0.985 0-0.547-0.546-0.547-0.703-0.547-1.39 0-4.984 0.141-6.375 0.141-1.4372 0-4.9841-0.141-6.4216-0.141-0.4063 0-0.9532 0-0.9532 0.985 0 0.547 0.4532 0.547 1.3907 0.547 0.1093 0 1.0469 0 1.9062 0.109 0.8907 0.094 1.3438 0.141 1.3438 0.797 0 0.297-0.5469 2.39-0.8438 3.531l-1.1093 4.391c-0.4376 1.937-2.8282 11.359-3.0313 12.297-0.3437 1.3902-0.3437 2.1402-0.3437 2.8902 0 6.0782 4.5312 9.5626 9.7502 9.5626 6.281 0 12.453-5.625 14.109-12.203z"/>
  </symbol>
 </defs>
 <g>
  <use xlink:href="#glyph0-1" height="243.255" width="895.82001" y="57.146999" x="101.913"/>
 </g>
 <g stroke-linejoin="round" stroke="#000" stroke-linecap="round" stroke-miterlimit="10" stroke-width="1.99" fill="none">
  <path d="m114.37 51.613v117.75"/>
  <path d="m108.28 44.832h-98.312"/>
  <path d="m224.84 60.871c21.23-21.219 55.6-21.379 77.02-0.484"/>
  <path d="m263.6 64.758 24.9-44.832"/>
  <path d="m308.43 9.9609h-89.664"/>
  <path d="m218.77 9.9609v69.742"/>
  <path d="m218.77 79.703h89.664"/>
  <path d="m308.43 79.703v-69.742"/>
  <path d="m218.77 44.832h-98.316"/>
  <path d="m378.17 49.812h-69.738"/>
  <path d="m378.17 39.852h-69.738"/>
 </g>
 <g>
  <use xlink:href="#glyph1-1" height="243.255" width="895.82001" y="131.487" x="428.53799"/>
 </g>
 <g stroke-linejoin="round" stroke="#000" stroke-linecap="round" stroke-miterlimit="10" stroke-width="1.99" fill="none">
  <path d="m593.46 60.871c21.23-21.219 55.6-21.379 77.02-0.484"/>
  <path d="m632.22 64.758 24.9-44.832"/>
  <path d="m677.05 9.9609h-89.668"/>
  <path d="m587.39 9.9609v69.742"/>
  <path d="m587.39 79.703h89.668"/>
  <path d="m677.05 79.703v-69.742"/>
  <path d="m587.39 44.832h-69.738"/>
 </g>
 <g>
  <use xlink:href="#glyph0-1" height="243.255" width="895.82001" y="57.146999" x="768.99799"/>
 </g>
 <g stroke-linejoin="round" stroke="#000" stroke-linecap="round" stroke-miterlimit="10" stroke-width="1.99" fill="none">
  <path d="m775.37 49.812h-98.312"/>
  <path d="m775.37 39.852h-98.312"/>
  <path d="m885.86 49.812h-98.316"/>
  <path d="m885.86 39.852h-98.316"/>
 </g>
 <g>
  <use xlink:href="#glyph2-1" height="243.255" width="895.82001" y="218.347" x="94.642998"/>
 </g>
 <g stroke-linejoin="round" stroke="#000" stroke-linecap="round" stroke-miterlimit="10" stroke-width="1.99" fill="none">
  <path d="m149.03 169.37h-69.328"/>
  <path d="m79.703 169.37v63.926"/>
  <path d="m79.703 233.29h69.328"/>
  <path d="m149.03 233.29v-63.926"/>
  <path d="m79.703 201.33h-69.738"/>
  <path d="m263.6 201.33h-114.57"/>
  <path d="m378.17 201.33h-114.57"/>
  <path d="m632.22 201.33h-114.57"/>
 </g>
 <g>
  <use xlink:href="#glyph2-1" height="243.255" width="895.82001" y="218.347" x="761.73297"/>
 </g>
 <g stroke-linejoin="round" stroke="#000" stroke-linecap="round" stroke-miterlimit="10" stroke-width="1.99" fill="none">
  <path d="m816.12 169.37h-69.328"/>
  <path d="m746.79 169.37v63.926"/>
  <path d="m746.79 233.29h69.328"/>
  <path d="m816.12 233.29v-63.926"/>
  <path d="m746.79 201.33h-114.57"/>
  <path d="m776.47 169.37v-117.75"/>
  <path d="m786.43 169.37v-117.75"/>
  <path d="m885.86 201.33h-69.742"/>
 </g>
</svg>
